<svg width="512" height="512" viewBox="0 0 512 512" xmlns="http://www.w3.org/2000/svg">
  <rect x="24" y="24" width="464" height="464" rx="96" fill="#13181D"/>
  <path d="M256 66L168 130L122 228L146 330L200 408L256 452L312 408L366 330L390 228L344 130Z" fill="#FFFFFF"/>
  <path d="M256 134L205 181L186 244L208 303L256 351L304 303L326 244L307 181Z" fill="#13181D"/>
  <path d="M221 332L256 364L291 332L273 410H239Z" fill="#13181D"/>
  <path d="M181 239L225 224L205 262L165 272Z" fill="#FF6B00"/>
  <path d="M331 239L287 224L307 262L347 272Z" fill="#23C7E8"/>
  <path d="M156 384C210 360 243 352 256 352C269 352 302 360 356 384L336 412C293 394 266 388 256 388C246 388 219 394 176 412Z" fill="#FFFFFF"/>
</svg>
