<svg width="720" height="1280" viewBox="0 0 720 1280" xmlns="http://www.w3.org/2000/svg">
  <rect width="720" height="1280" fill="#141414"/>
  <rect x="24" y="72" width="672" height="72" rx="18" fill="#6B6B6B"/>
  <path d="M62 104h42" stroke="#FFFFFF" stroke-width="8" stroke-linecap="round"/>
  <path d="M84 86l20 18l-20 18" stroke="#FFFFFF" stroke-width="8" stroke-linecap="round" stroke-linejoin="round" fill="none"/>
  <path d="M62 116h42" stroke="#FFFFFF" stroke-width="8" stroke-linecap="round"/>
  <path d="M82 98l-20 18l20 18" stroke="#FFFFFF" stroke-width="8" stroke-linecap="round" stroke-linejoin="round" fill="none"/>
  <text x="128" y="119" fill="#FFFFFF" font-family="Arial, sans-serif" font-size="22" font-weight="700">LUPINE SL GRANO F</text>

  <rect x="24" y="168" width="330" height="150" rx="22" fill="#6B6B6B"/>
  <rect x="366" y="168" width="330" height="150" rx="22" fill="#6B6B6B"/>
  <text x="190" y="218" text-anchor="middle" fill="#FFFFFF" font-family="Arial, sans-serif" font-size="28" font-weight="700">ACTIVE</text>
  <text x="190" y="290" text-anchor="middle" fill="#FFFFFF" font-family="Arial, sans-serif" font-size="60" font-weight="700">LOW</text>
  <text x="531" y="218" text-anchor="middle" fill="#FFFFFF" font-family="Arial, sans-serif" font-size="28" font-weight="700">PROFILE</text>
  <text x="531" y="290" text-anchor="middle" fill="#FFFFFF" font-family="Arial, sans-serif" font-size="54" font-weight="700">AUTO ECO</text>

  <rect x="24" y="336" width="672" height="170" rx="24" fill="#20D39B"/>
  <text x="360" y="418" text-anchor="middle" fill="#FFFFFF" font-family="Arial, sans-serif" font-size="58" font-weight="700">CONNECTED</text>
  <text x="360" y="468" text-anchor="middle" fill="#F5FFF8" font-family="Arial, sans-serif" font-size="28" font-weight="700">ready</text>

  <rect x="24" y="528" width="214" height="112" rx="20" fill="#C6EF2D"/>
  <rect x="252" y="528" width="214" height="112" rx="20" fill="#0A6BFF"/>
  <rect x="480" y="528" width="216" height="112" rx="20" fill="#575757"/>
  <text x="131" y="594" text-anchor="middle" fill="#FFFFFF" font-family="Arial, sans-serif" font-size="34" font-weight="700">T1 SHORT</text>
  <text x="359" y="594" text-anchor="middle" fill="#FFFFFF" font-family="Arial, sans-serif" font-size="34" font-weight="700">T2 SHORT</text>
  <text x="588" y="594" text-anchor="middle" fill="#FFFFFF" font-family="Arial, sans-serif" font-size="34" font-weight="700">LAMP OFF</text>

  <rect x="24" y="660" width="156" height="110" rx="18" fill="#20D39B"/>
  <rect x="196" y="660" width="156" height="110" rx="18" fill="#6B6B6B"/>
  <rect x="368" y="660" width="156" height="110" rx="18" fill="#6B6B6B"/>
  <rect x="540" y="660" width="156" height="110" rx="18" fill="#6B6B6B"/>
  <text x="102" y="726" text-anchor="middle" fill="#FFFFFF" font-family="Arial, sans-serif" font-size="30" font-weight="700">AUTO</text>
  <text x="274" y="726" text-anchor="middle" fill="#FFFFFF" font-family="Arial, sans-serif" font-size="30" font-weight="700">AUTO ECO</text>
  <text x="446" y="726" text-anchor="middle" fill="#FFFFFF" font-family="Arial, sans-serif" font-size="30" font-weight="700">MANUAL</text>
  <text x="618" y="726" text-anchor="middle" fill="#FFFFFF" font-family="Arial, sans-serif" font-size="30" font-weight="700">MANUAL ECO</text>

  <rect x="24" y="792" width="330" height="96" rx="18" fill="#6B6B6B"/>
  <rect x="366" y="792" width="330" height="96" rx="18" fill="#6B6B6B"/>
  <text x="190" y="852" text-anchor="middle" fill="#FFFFFF" font-family="Arial, sans-serif" font-size="34" font-weight="700">T1 LONG</text>
  <text x="531" y="852" text-anchor="middle" fill="#FFFFFF" font-family="Arial, sans-serif" font-size="34" font-weight="700">T2 LONG</text>

  <rect x="24" y="910" width="672" height="108" rx="18" fill="#6B6B6B"/>
  <text x="360" y="978" text-anchor="middle" fill="#FFFFFF" font-family="Arial, sans-serif" font-size="40" font-weight="700">DISCONNECT</text>

  <rect x="24" y="1068" width="672" height="168" rx="24" fill="#1F262B" stroke="#2A343B" stroke-width="2"/>
  <rect x="72" y="1106" width="170" height="80" rx="18" fill="#C6EF2D"/>
  <rect x="266" y="1106" width="170" height="80" rx="18" fill="#23C7E8"/>
  <rect x="460" y="1106" width="188" height="80" rx="18" fill="#FF6B00"/>
  <text x="157" y="1156" text-anchor="middle" fill="#FFFFFF" font-family="Arial, sans-serif" font-size="28" font-weight="700">LOW ECO</text>
  <text x="351" y="1156" text-anchor="middle" fill="#FFFFFF" font-family="Arial, sans-serif" font-size="28" font-weight="700">HIGH ECO</text>
  <text x="554" y="1156" text-anchor="middle" fill="#FFFFFF" font-family="Arial, sans-serif" font-size="28" font-weight="700">RIDE FIELD</text>
</svg>