<svg width="512" height="512" viewBox="0 0 512 512" xmlns="http://www.w3.org/2000/svg">
  <defs>
    <linearGradient id="body" x1="0" y1="0" x2="0" y2="1">
      <stop offset="0" stop-color="#3A3A3A"/>
      <stop offset="1" stop-color="#1B1B1B"/>
    </linearGradient>
    <linearGradient id="button" x1="0" y1="0" x2="0" y2="1">
      <stop offset="0" stop-color="#2C2C2C"/>
      <stop offset="1" stop-color="#161616"/>
    </linearGradient>
  </defs>
  <rect x="44" y="82" width="424" height="348" rx="44" fill="url(#body)" stroke="#0A0A0A" stroke-width="4"/>
  <path d="M58 104C142 90 360 90 454 104" fill="none" stroke="rgba(255,255,255,0.18)" stroke-width="8" stroke-linecap="round"/>
  <rect x="163" y="125" width="146" height="222" rx="34" fill="url(#button)" stroke="#0D0D0D" stroke-width="4"/>
  <rect x="334" y="166" width="72" height="140" rx="24" fill="url(#button)" stroke="#0D0D0D" stroke-width="4"/>
  <rect x="185" y="157" width="102" height="158" rx="26" fill="#212121" opacity="0.55"/>
  <rect x="349" y="182" width="42" height="108" rx="18" fill="#212121" opacity="0.45"/>
  <path d="M184 179H217V191H184ZM184 212H217V224H184ZM184 245H217V257H184ZM184 278H217V290H184Z" fill="#FFFFFF"/>
  <path d="M232 174H252C299 174 323 207 323 236C323 265 299 298 252 298H232Z" fill="none" stroke="#FFFFFF" stroke-width="14" stroke-linejoin="round"/>
</svg>